<svg width="520" height="260" viewBox="0 0 520 260" fill="none" xmlns="http://www.w3.org/2000/svg">
<rect x="70" y="12" width="100" height="100" rx="50" fill="black" fill-opacity="0.05"/>
<path d="M145.5 44C146.329 44 147 43.3288 147 42.5V39.5C147 38.6712 146.329 38 145.5 38H94.5C93.6712 38 93 38.6712 93 39.5V42.5C93 43.3288 93.6712 44 94.5 44H95.9981V80H94.5C93.6712 80 93 80.6712 93 81.5V84.5C93 85.3288 93.6712 86 94.5 86H117V78.5C117 77.675 117.675 77 118.5 77H121.5C122.325 77 123 77.675 123 78.5V86H145.5C146.329 86 147 85.3288 147 84.5V81.5C147 80.6712 146.329 80 145.5 80H144V44H145.5ZM117 48.2C117 47.6 117.6 47 118.2 47H121.8C122.4 47 123 47.6 123 48.2V51.8C123 52.4 122.4 53 121.8 53H118.2C117.6 53 117 52.4 117 51.8V48.2ZM117 57.2C117 56.6 117.6 56 118.2 56H121.8C122.4 56 123 56.6 123 57.2V60.8C123 61.4 122.4 62 121.8 62H118.2C117.6 62 117 61.4 117 60.8V57.2ZM105 48.2C105 47.6 105.6 47 106.2 47H109.8C110.4 47 111 47.6 111 48.2V51.8C111 52.4 110.4 53 109.8 53H106.2C105.6 53 105 52.4 105 51.8V48.2ZM109.8 62H106.2C105.6 62 105 61.4 105 60.8V57.2C105 56.6 105.6 56 106.2 56H109.8C110.4 56 111 56.6 111 57.2V60.8C111 61.4 110.4 62 109.8 62ZM111 74C111 69.0294 115.029 65 120 65C124.971 65 129 69.0294 129 74H111ZM135 60.8C135 61.4 134.4 62 133.8 62H130.2C129.6 62 129 61.4 129 60.8V57.2C129 56.6 129.6 56 130.2 56H133.8C134.4 56 135 56.6 135 57.2V60.8ZM135 51.8C135 52.4 134.4 53 133.8 53H130.2C129.6 53 129 52.4 129 51.8V48.2C129 47.6 129.6 47 130.2 47H133.8C134.4 47 135 47.6 135 48.2V51.8Z" fill="#0006CF"/>
<path d="M98.0859 144.895V146.428H90.3906V144.895H98.0859ZM90.6836 138.781V153H88.7988V138.781H90.6836ZM99.7266 138.781V153H97.8516V138.781H99.7266ZM102.324 147.834V147.609C102.324 146.848 102.435 146.141 102.656 145.49C102.878 144.833 103.197 144.263 103.613 143.781C104.03 143.293 104.535 142.915 105.127 142.648C105.719 142.375 106.383 142.238 107.119 142.238C107.861 142.238 108.529 142.375 109.121 142.648C109.72 142.915 110.228 143.293 110.645 143.781C111.068 144.263 111.39 144.833 111.611 145.49C111.833 146.141 111.943 146.848 111.943 147.609V147.834C111.943 148.596 111.833 149.302 111.611 149.953C111.39 150.604 111.068 151.174 110.645 151.662C110.228 152.144 109.723 152.521 109.131 152.795C108.545 153.062 107.881 153.195 107.139 153.195C106.396 153.195 105.729 153.062 105.137 152.795C104.544 152.521 104.036 152.144 103.613 151.662C103.197 151.174 102.878 150.604 102.656 149.953C102.435 149.302 102.324 148.596 102.324 147.834ZM104.131 147.609V147.834C104.131 148.361 104.193 148.859 104.316 149.328C104.44 149.79 104.626 150.201 104.873 150.559C105.127 150.917 105.443 151.2 105.82 151.408C106.198 151.61 106.637 151.711 107.139 151.711C107.633 151.711 108.066 151.61 108.438 151.408C108.815 151.2 109.128 150.917 109.375 150.559C109.622 150.201 109.808 149.79 109.932 149.328C110.062 148.859 110.127 148.361 110.127 147.834V147.609C110.127 147.089 110.062 146.597 109.932 146.135C109.808 145.666 109.619 145.253 109.365 144.895C109.118 144.53 108.805 144.243 108.428 144.035C108.057 143.827 107.62 143.723 107.119 143.723C106.624 143.723 106.188 143.827 105.811 144.035C105.439 144.243 105.127 144.53 104.873 144.895C104.626 145.253 104.44 145.666 104.316 146.135C104.193 146.597 104.131 147.089 104.131 147.609ZM118.633 142.434V143.82H112.92V142.434H118.633ZM114.854 139.865H116.66V150.383C116.66 150.741 116.715 151.011 116.826 151.193C116.937 151.376 117.08 151.496 117.256 151.555C117.432 151.613 117.62 151.643 117.822 151.643C117.972 151.643 118.128 151.63 118.291 151.604C118.46 151.571 118.587 151.545 118.672 151.525L118.682 153C118.538 153.046 118.35 153.088 118.115 153.127C117.887 153.173 117.611 153.195 117.285 153.195C116.842 153.195 116.436 153.107 116.064 152.932C115.693 152.756 115.397 152.463 115.176 152.053C114.961 151.636 114.854 151.076 114.854 150.373V139.865ZM125.137 153.195C124.401 153.195 123.734 153.072 123.135 152.824C122.542 152.57 122.031 152.215 121.602 151.76C121.178 151.304 120.853 150.764 120.625 150.139C120.397 149.514 120.283 148.83 120.283 148.088V147.678C120.283 146.818 120.41 146.053 120.664 145.383C120.918 144.706 121.263 144.133 121.699 143.664C122.135 143.195 122.63 142.84 123.184 142.6C123.737 142.359 124.31 142.238 124.902 142.238C125.658 142.238 126.309 142.368 126.855 142.629C127.409 142.889 127.861 143.254 128.213 143.723C128.564 144.185 128.825 144.732 128.994 145.363C129.163 145.988 129.248 146.672 129.248 147.414V148.225H121.357V146.75H127.441V146.613C127.415 146.145 127.318 145.689 127.148 145.246C126.986 144.803 126.725 144.439 126.367 144.152C126.009 143.866 125.521 143.723 124.902 143.723C124.492 143.723 124.115 143.811 123.77 143.986C123.424 144.156 123.128 144.41 122.881 144.748C122.633 145.087 122.441 145.5 122.305 145.988C122.168 146.477 122.1 147.04 122.1 147.678V148.088C122.1 148.589 122.168 149.061 122.305 149.504C122.448 149.94 122.653 150.324 122.92 150.656C123.193 150.988 123.522 151.249 123.906 151.438C124.297 151.626 124.74 151.721 125.234 151.721C125.872 151.721 126.413 151.59 126.855 151.33C127.298 151.07 127.686 150.721 128.018 150.285L129.111 151.154C128.883 151.499 128.594 151.828 128.242 152.141C127.891 152.453 127.458 152.707 126.943 152.902C126.436 153.098 125.833 153.195 125.137 153.195ZM133.32 138V153H131.504V138H133.32ZM146.719 140.041L142.012 153H140.088L145.508 138.781H146.748L146.719 140.041ZM150.664 153L145.947 140.041L145.918 138.781H147.158L152.598 153H150.664ZM150.42 147.736V149.279H142.432V147.736H150.42Z" fill="black"/>
<path d="M99.8984 183.812V185H92.4531V183.961L96.1797 179.812C96.638 179.302 96.9922 178.87 97.2422 178.516C97.4974 178.156 97.6745 177.836 97.7734 177.555C97.8776 177.268 97.9297 176.977 97.9297 176.68C97.9297 176.305 97.8516 175.966 97.6953 175.664C97.5443 175.357 97.3203 175.112 97.0234 174.93C96.7266 174.747 96.3672 174.656 95.9453 174.656C95.4401 174.656 95.0182 174.755 94.6797 174.953C94.3464 175.146 94.0964 175.417 93.9297 175.766C93.763 176.115 93.6797 176.516 93.6797 176.969H92.2344C92.2344 176.328 92.375 175.742 92.6562 175.211C92.9375 174.68 93.3542 174.258 93.9062 173.945C94.4583 173.628 95.138 173.469 95.9453 173.469C96.6641 173.469 97.2786 173.596 97.7891 173.852C98.2995 174.102 98.6901 174.456 98.9609 174.914C99.237 175.367 99.375 175.898 99.375 176.508C99.375 176.841 99.3177 177.18 99.2031 177.523C99.0938 177.862 98.9401 178.201 98.7422 178.539C98.5495 178.878 98.3229 179.211 98.0625 179.539C97.8073 179.867 97.5339 180.19 97.2422 180.508L94.1953 183.812H99.8984ZM107.016 178.352V185H105.57V176.547H106.938L107.016 178.352ZM106.672 180.453L106.07 180.43C106.076 179.852 106.161 179.318 106.328 178.828C106.495 178.333 106.729 177.904 107.031 177.539C107.333 177.174 107.693 176.893 108.109 176.695C108.531 176.492 108.997 176.391 109.508 176.391C109.924 176.391 110.299 176.448 110.633 176.562C110.966 176.672 111.25 176.849 111.484 177.094C111.724 177.339 111.906 177.656 112.031 178.047C112.156 178.432 112.219 178.904 112.219 179.461V185H110.766V179.445C110.766 179.003 110.701 178.648 110.57 178.383C110.44 178.112 110.25 177.917 110 177.797C109.75 177.672 109.443 177.609 109.078 177.609C108.719 177.609 108.391 177.685 108.094 177.836C107.802 177.987 107.549 178.195 107.336 178.461C107.128 178.727 106.964 179.031 106.844 179.375C106.729 179.714 106.672 180.073 106.672 180.453ZM115.984 176.547V185H114.531V176.547H115.984ZM114.422 174.305C114.422 174.07 114.492 173.872 114.633 173.711C114.779 173.549 114.992 173.469 115.273 173.469C115.549 173.469 115.76 173.549 115.906 173.711C116.057 173.872 116.133 174.07 116.133 174.305C116.133 174.529 116.057 174.721 115.906 174.883C115.76 175.039 115.549 175.117 115.273 175.117C114.992 175.117 114.779 175.039 114.633 174.883C114.492 174.721 114.422 174.529 114.422 174.305ZM123.781 176.547H125.094V184.82C125.094 185.565 124.943 186.201 124.641 186.727C124.339 187.253 123.917 187.651 123.375 187.922C122.839 188.198 122.219 188.336 121.516 188.336C121.224 188.336 120.88 188.289 120.484 188.195C120.094 188.107 119.708 187.953 119.328 187.734C118.953 187.521 118.638 187.232 118.383 186.867L119.141 186.008C119.495 186.435 119.865 186.732 120.25 186.898C120.641 187.065 121.026 187.148 121.406 187.148C121.865 187.148 122.26 187.062 122.594 186.891C122.927 186.719 123.185 186.464 123.367 186.125C123.555 185.792 123.648 185.38 123.648 184.891V178.406L123.781 176.547ZM117.961 180.867V180.703C117.961 180.057 118.036 179.471 118.188 178.945C118.344 178.414 118.565 177.958 118.852 177.578C119.143 177.198 119.495 176.906 119.906 176.703C120.318 176.495 120.781 176.391 121.297 176.391C121.828 176.391 122.292 176.484 122.688 176.672C123.089 176.854 123.427 177.122 123.703 177.477C123.984 177.826 124.206 178.247 124.367 178.742C124.529 179.237 124.641 179.797 124.703 180.422V181.141C124.646 181.76 124.534 182.318 124.367 182.812C124.206 183.307 123.984 183.729 123.703 184.078C123.427 184.427 123.089 184.695 122.688 184.883C122.286 185.065 121.818 185.156 121.281 185.156C120.776 185.156 120.318 185.049 119.906 184.836C119.5 184.622 119.151 184.323 118.859 183.938C118.568 183.552 118.344 183.099 118.188 182.578C118.036 182.052 117.961 181.482 117.961 180.867ZM119.406 180.703V180.867C119.406 181.289 119.448 181.685 119.531 182.055C119.62 182.424 119.753 182.75 119.93 183.031C120.112 183.312 120.344 183.534 120.625 183.695C120.906 183.852 121.242 183.93 121.633 183.93C122.112 183.93 122.508 183.828 122.82 183.625C123.133 183.422 123.38 183.154 123.562 182.82C123.75 182.487 123.896 182.125 124 181.734V179.852C123.943 179.565 123.854 179.289 123.734 179.023C123.62 178.753 123.469 178.513 123.281 178.305C123.099 178.091 122.872 177.922 122.602 177.797C122.331 177.672 122.013 177.609 121.648 177.609C121.253 177.609 120.911 177.693 120.625 177.859C120.344 178.021 120.112 178.245 119.93 178.531C119.753 178.812 119.62 179.141 119.531 179.516C119.448 179.885 119.406 180.281 119.406 180.703ZM128.734 173V185H127.289V173H128.734ZM128.391 180.453L127.789 180.43C127.794 179.852 127.88 179.318 128.047 178.828C128.214 178.333 128.448 177.904 128.75 177.539C129.052 177.174 129.411 176.893 129.828 176.695C130.25 176.492 130.716 176.391 131.227 176.391C131.643 176.391 132.018 176.448 132.352 176.562C132.685 176.672 132.969 176.849 133.203 177.094C133.443 177.339 133.625 177.656 133.75 178.047C133.875 178.432 133.938 178.904 133.938 179.461V185H132.484V179.445C132.484 179.003 132.419 178.648 132.289 178.383C132.159 178.112 131.969 177.917 131.719 177.797C131.469 177.672 131.161 177.609 130.797 177.609C130.438 177.609 130.109 177.685 129.812 177.836C129.521 177.987 129.268 178.195 129.055 178.461C128.846 178.727 128.682 179.031 128.562 179.375C128.448 179.714 128.391 180.073 128.391 180.453ZM139.641 176.547V177.656H135.07V176.547H139.641ZM136.617 174.492H138.062V182.906C138.062 183.193 138.107 183.409 138.195 183.555C138.284 183.701 138.398 183.797 138.539 183.844C138.68 183.891 138.831 183.914 138.992 183.914C139.112 183.914 139.237 183.904 139.367 183.883C139.503 183.857 139.604 183.836 139.672 183.82L139.68 185C139.565 185.036 139.414 185.07 139.227 185.102C139.044 185.138 138.823 185.156 138.562 185.156C138.208 185.156 137.883 185.086 137.586 184.945C137.289 184.805 137.052 184.57 136.875 184.242C136.703 183.909 136.617 183.461 136.617 182.898V174.492ZM146.258 182.758C146.258 182.549 146.211 182.357 146.117 182.18C146.029 181.997 145.844 181.833 145.562 181.688C145.286 181.536 144.87 181.406 144.312 181.297C143.844 181.198 143.419 181.081 143.039 180.945C142.664 180.81 142.344 180.646 142.078 180.453C141.818 180.26 141.617 180.034 141.477 179.773C141.336 179.513 141.266 179.208 141.266 178.859C141.266 178.526 141.339 178.211 141.484 177.914C141.635 177.617 141.846 177.354 142.117 177.125C142.393 176.896 142.724 176.716 143.109 176.586C143.495 176.456 143.924 176.391 144.398 176.391C145.076 176.391 145.654 176.51 146.133 176.75C146.612 176.99 146.979 177.31 147.234 177.711C147.49 178.107 147.617 178.547 147.617 179.031H146.172C146.172 178.797 146.102 178.57 145.961 178.352C145.826 178.128 145.625 177.943 145.359 177.797C145.099 177.651 144.779 177.578 144.398 177.578C143.997 177.578 143.672 177.641 143.422 177.766C143.177 177.885 142.997 178.039 142.883 178.227C142.773 178.414 142.719 178.612 142.719 178.82C142.719 178.977 142.745 179.117 142.797 179.242C142.854 179.362 142.953 179.474 143.094 179.578C143.234 179.677 143.432 179.771 143.688 179.859C143.943 179.948 144.268 180.036 144.664 180.125C145.357 180.281 145.927 180.469 146.375 180.688C146.823 180.906 147.156 181.174 147.375 181.492C147.594 181.81 147.703 182.195 147.703 182.648C147.703 183.018 147.625 183.357 147.469 183.664C147.318 183.971 147.096 184.237 146.805 184.461C146.518 184.68 146.174 184.852 145.773 184.977C145.378 185.096 144.932 185.156 144.438 185.156C143.693 185.156 143.062 185.023 142.547 184.758C142.031 184.492 141.641 184.148 141.375 183.727C141.109 183.305 140.977 182.859 140.977 182.391H142.43C142.451 182.786 142.565 183.102 142.773 183.336C142.982 183.565 143.237 183.729 143.539 183.828C143.841 183.922 144.141 183.969 144.438 183.969C144.833 183.969 145.164 183.917 145.43 183.812C145.701 183.708 145.906 183.565 146.047 183.383C146.188 183.201 146.258 182.992 146.258 182.758Z" fill="black" fill-opacity="0.5"/>
<path d="M97.5918 216.908V220.996H95.4863V216.908H97.5918ZM97.332 239.234V242.898H95.2402V239.234H97.332ZM99.3965 234.818C99.3965 234.29 99.2871 233.829 99.0684 233.438C98.8587 233.036 98.5124 232.676 98.0293 232.357C97.5462 232.029 96.8991 231.724 96.0879 231.441C94.9212 231.031 93.9004 230.571 93.0254 230.061C92.1595 229.541 91.485 228.903 91.002 228.146C90.528 227.381 90.291 226.428 90.291 225.289C90.291 224.168 90.5462 223.197 91.0566 222.377C91.5762 221.557 92.2962 220.923 93.2168 220.477C94.1374 220.03 95.2129 219.807 96.4434 219.807C97.3913 219.807 98.2435 219.948 99 220.23C99.7656 220.513 100.417 220.928 100.955 221.475C101.493 222.021 101.903 222.696 102.186 223.498C102.477 224.291 102.623 225.202 102.623 226.232H99.3418C99.3418 225.649 99.2734 225.13 99.1367 224.674C99.0091 224.209 98.8177 223.817 98.5625 223.498C98.3073 223.17 97.9974 222.919 97.6328 222.746C97.2773 222.573 96.8717 222.486 96.416 222.486C95.7689 222.486 95.2357 222.609 94.8164 222.855C94.3971 223.092 94.0872 223.421 93.8867 223.84C93.6953 224.259 93.5996 224.738 93.5996 225.275C93.5996 225.795 93.6999 226.251 93.9004 226.643C94.1009 227.035 94.4427 227.39 94.9258 227.709C95.418 228.019 96.0924 228.333 96.9492 228.652C98.125 229.072 99.1413 229.541 99.998 230.061C100.864 230.571 101.529 231.204 101.994 231.961C102.468 232.708 102.705 233.652 102.705 234.791C102.705 235.967 102.432 236.965 101.885 237.785C101.347 238.605 100.59 239.23 99.6152 239.658C98.6491 240.077 97.5234 240.287 96.2383 240.287C95.4271 240.287 94.6204 240.182 93.8184 239.973C93.0254 239.754 92.3053 239.398 91.6582 238.906C91.0111 238.414 90.4961 237.762 90.1133 236.951C89.7305 236.131 89.5391 235.128 89.5391 233.943H92.8477C92.8477 234.654 92.9434 235.247 93.1348 235.721C93.3262 236.195 93.5859 236.568 93.9141 236.842C94.2422 237.115 94.6068 237.311 95.0078 237.43C95.418 237.548 95.8281 237.607 96.2383 237.607C96.9219 237.607 97.4961 237.493 97.9609 237.266C98.4349 237.029 98.7904 236.701 99.0273 236.281C99.2734 235.853 99.3965 235.365 99.3965 234.818ZM118.934 237.375V240H105.59V237.744L112.07 230.676C112.781 229.874 113.342 229.181 113.752 228.598C114.162 228.014 114.449 227.49 114.613 227.025C114.786 226.551 114.873 226.091 114.873 225.645C114.873 225.016 114.755 224.464 114.518 223.99C114.29 223.507 113.952 223.129 113.506 222.855C113.059 222.573 112.517 222.432 111.879 222.432C111.141 222.432 110.521 222.591 110.02 222.91C109.518 223.229 109.14 223.671 108.885 224.236C108.63 224.792 108.502 225.43 108.502 226.15H105.207C105.207 224.993 105.471 223.936 106 222.979C106.529 222.012 107.294 221.247 108.297 220.682C109.299 220.107 110.507 219.82 111.92 219.82C113.251 219.82 114.381 220.044 115.311 220.49C116.24 220.937 116.947 221.57 117.43 222.391C117.922 223.211 118.168 224.182 118.168 225.303C118.168 225.923 118.068 226.538 117.867 227.148C117.667 227.759 117.38 228.37 117.006 228.98C116.641 229.582 116.208 230.188 115.707 230.799C115.206 231.4 114.654 232.011 114.053 232.631L109.746 237.375H118.934ZM134.479 228.379V231.633C134.479 233.191 134.324 234.522 134.014 235.625C133.713 236.719 133.275 237.607 132.701 238.291C132.127 238.975 131.439 239.476 130.637 239.795C129.844 240.114 128.955 240.273 127.971 240.273C127.187 240.273 126.458 240.173 125.783 239.973C125.118 239.772 124.516 239.458 123.979 239.029C123.441 238.601 122.98 238.049 122.598 237.375C122.224 236.691 121.932 235.876 121.723 234.928C121.522 233.98 121.422 232.882 121.422 231.633V228.379C121.422 226.811 121.577 225.49 121.887 224.414C122.197 223.329 122.639 222.45 123.213 221.775C123.787 221.092 124.471 220.595 125.264 220.285C126.066 219.975 126.959 219.82 127.943 219.82C128.736 219.82 129.465 219.921 130.131 220.121C130.805 220.312 131.407 220.618 131.936 221.037C132.473 221.456 132.929 222.003 133.303 222.678C133.686 223.343 133.977 224.15 134.178 225.098C134.378 226.036 134.479 227.13 134.479 228.379ZM131.184 232.098V227.887C131.184 227.094 131.138 226.396 131.047 225.795C130.956 225.184 130.819 224.669 130.637 224.25C130.464 223.822 130.245 223.475 129.98 223.211C129.716 222.938 129.415 222.742 129.078 222.623C128.741 222.495 128.363 222.432 127.943 222.432C127.433 222.432 126.977 222.532 126.576 222.732C126.175 222.924 125.838 223.234 125.564 223.662C125.291 224.09 125.081 224.656 124.936 225.357C124.799 226.05 124.73 226.893 124.73 227.887V232.098C124.73 232.9 124.776 233.606 124.867 234.217C124.958 234.827 125.095 235.352 125.277 235.789C125.46 236.217 125.678 236.573 125.934 236.855C126.198 237.129 126.499 237.329 126.836 237.457C127.182 237.585 127.561 237.648 127.971 237.648C128.49 237.648 128.951 237.548 129.352 237.348C129.753 237.147 130.09 236.828 130.363 236.391C130.637 235.944 130.842 235.365 130.979 234.654C131.115 233.943 131.184 233.091 131.184 232.098ZM150.393 228.379V231.633C150.393 233.191 150.238 234.522 149.928 235.625C149.627 236.719 149.189 237.607 148.615 238.291C148.041 238.975 147.353 239.476 146.551 239.795C145.758 240.114 144.869 240.273 143.885 240.273C143.101 240.273 142.372 240.173 141.697 239.973C141.032 239.772 140.43 239.458 139.893 239.029C139.355 238.601 138.895 238.049 138.512 237.375C138.138 236.691 137.846 235.876 137.637 234.928C137.436 233.98 137.336 232.882 137.336 231.633V228.379C137.336 226.811 137.491 225.49 137.801 224.414C138.111 223.329 138.553 222.45 139.127 221.775C139.701 221.092 140.385 220.595 141.178 220.285C141.98 219.975 142.873 219.82 143.857 219.82C144.65 219.82 145.38 219.921 146.045 220.121C146.719 220.312 147.321 220.618 147.85 221.037C148.387 221.456 148.843 222.003 149.217 222.678C149.6 223.343 149.891 224.15 150.092 225.098C150.292 226.036 150.393 227.13 150.393 228.379ZM147.098 232.098V227.887C147.098 227.094 147.052 226.396 146.961 225.795C146.87 225.184 146.733 224.669 146.551 224.25C146.378 223.822 146.159 223.475 145.895 223.211C145.63 222.938 145.329 222.742 144.992 222.623C144.655 222.495 144.277 222.432 143.857 222.432C143.347 222.432 142.891 222.532 142.49 222.732C142.089 222.924 141.752 223.234 141.479 223.662C141.205 224.09 140.995 224.656 140.85 225.357C140.713 226.05 140.645 226.893 140.645 227.887V232.098C140.645 232.9 140.69 233.606 140.781 234.217C140.872 234.827 141.009 235.352 141.191 235.789C141.374 236.217 141.592 236.573 141.848 236.855C142.112 237.129 142.413 237.329 142.75 237.457C143.096 237.585 143.475 237.648 143.885 237.648C144.404 237.648 144.865 237.548 145.266 237.348C145.667 237.147 146.004 236.828 146.277 236.391C146.551 235.944 146.756 235.365 146.893 234.654C147.029 233.943 147.098 233.091 147.098 232.098Z" fill="black"/>
<rect x="350" y="12" width="100" height="100" rx="50" fill="black" fill-opacity="0.05"/>
<path d="M411.023 78.2907H415.559V60.1453H401.95V78.2907H406.486V64.6817H411.023V78.2907ZM379.268 78.2907V44.2682C379.268 43.6666 379.507 43.0897 379.932 42.6643C380.358 42.239 380.935 42 381.536 42H413.291C413.892 42 414.469 42.239 414.895 42.6643C415.32 43.0897 415.559 43.6666 415.559 44.2682V55.609H420.095V78.2907H422.363V82.827H377V78.2907H379.268ZM388.341 60.1453V64.6817H392.877V60.1453H388.341ZM388.341 69.218V73.7544H392.877V69.218H388.341ZM388.341 51.0727V55.609H392.877V51.0727H388.341Z" fill="#0006CF"/>
<path d="M363.701 138.781H368.408C369.476 138.781 370.378 138.944 371.113 139.27C371.855 139.595 372.419 140.077 372.803 140.715C373.193 141.346 373.389 142.124 373.389 143.049C373.389 143.7 373.255 144.296 372.988 144.836C372.728 145.37 372.35 145.826 371.855 146.203C371.367 146.574 370.781 146.851 370.098 147.033L369.57 147.238H365.146L365.127 145.705H368.467C369.144 145.705 369.707 145.588 370.156 145.354C370.605 145.113 370.944 144.79 371.172 144.387C371.4 143.983 371.514 143.537 371.514 143.049C371.514 142.502 371.406 142.023 371.191 141.613C370.977 141.203 370.638 140.887 370.176 140.666C369.72 140.438 369.131 140.324 368.408 140.324H365.586V153H363.701V138.781ZM372.012 153L368.555 146.555L370.518 146.545L374.023 152.883V153H372.012ZM380.137 153.195C379.401 153.195 378.734 153.072 378.135 152.824C377.542 152.57 377.031 152.215 376.602 151.76C376.178 151.304 375.853 150.764 375.625 150.139C375.397 149.514 375.283 148.83 375.283 148.088V147.678C375.283 146.818 375.41 146.053 375.664 145.383C375.918 144.706 376.263 144.133 376.699 143.664C377.135 143.195 377.63 142.84 378.184 142.6C378.737 142.359 379.31 142.238 379.902 142.238C380.658 142.238 381.309 142.368 381.855 142.629C382.409 142.889 382.861 143.254 383.213 143.723C383.564 144.185 383.825 144.732 383.994 145.363C384.163 145.988 384.248 146.672 384.248 147.414V148.225H376.357V146.75H382.441V146.613C382.415 146.145 382.318 145.689 382.148 145.246C381.986 144.803 381.725 144.439 381.367 144.152C381.009 143.866 380.521 143.723 379.902 143.723C379.492 143.723 379.115 143.811 378.77 143.986C378.424 144.156 378.128 144.41 377.881 144.748C377.633 145.087 377.441 145.5 377.305 145.988C377.168 146.477 377.1 147.04 377.1 147.678V148.088C377.1 148.589 377.168 149.061 377.305 149.504C377.448 149.94 377.653 150.324 377.92 150.656C378.193 150.988 378.522 151.249 378.906 151.438C379.297 151.626 379.74 151.721 380.234 151.721C380.872 151.721 381.413 151.59 381.855 151.33C382.298 151.07 382.686 150.721 383.018 150.285L384.111 151.154C383.883 151.499 383.594 151.828 383.242 152.141C382.891 152.453 382.458 152.707 381.943 152.902C381.436 153.098 380.833 153.195 380.137 153.195ZM392.51 150.197C392.51 149.937 392.451 149.696 392.334 149.475C392.223 149.247 391.992 149.042 391.641 148.859C391.296 148.671 390.775 148.508 390.078 148.371C389.492 148.247 388.962 148.101 388.486 147.932C388.018 147.762 387.617 147.557 387.285 147.316C386.96 147.076 386.709 146.792 386.533 146.467C386.357 146.141 386.27 145.76 386.27 145.324C386.27 144.908 386.361 144.514 386.543 144.143C386.732 143.771 386.995 143.443 387.334 143.156C387.679 142.87 388.092 142.645 388.574 142.482C389.056 142.32 389.593 142.238 390.186 142.238C391.032 142.238 391.755 142.388 392.354 142.688C392.952 142.987 393.411 143.387 393.73 143.889C394.049 144.383 394.209 144.934 394.209 145.539H392.402C392.402 145.246 392.314 144.963 392.139 144.689C391.969 144.41 391.719 144.178 391.387 143.996C391.061 143.814 390.661 143.723 390.186 143.723C389.684 143.723 389.277 143.801 388.965 143.957C388.659 144.107 388.434 144.299 388.291 144.533C388.154 144.768 388.086 145.015 388.086 145.275C388.086 145.471 388.118 145.646 388.184 145.803C388.255 145.952 388.379 146.092 388.555 146.223C388.73 146.346 388.978 146.464 389.297 146.574C389.616 146.685 390.023 146.796 390.518 146.906C391.383 147.102 392.096 147.336 392.656 147.609C393.216 147.883 393.633 148.218 393.906 148.615C394.18 149.012 394.316 149.494 394.316 150.061C394.316 150.523 394.219 150.946 394.023 151.33C393.835 151.714 393.558 152.046 393.193 152.326C392.835 152.6 392.406 152.814 391.904 152.971C391.41 153.12 390.853 153.195 390.234 153.195C389.303 153.195 388.516 153.029 387.871 152.697C387.227 152.365 386.738 151.936 386.406 151.408C386.074 150.881 385.908 150.324 385.908 149.738H387.725C387.751 150.233 387.894 150.627 388.154 150.92C388.415 151.206 388.734 151.411 389.111 151.535C389.489 151.652 389.863 151.711 390.234 151.711C390.729 151.711 391.143 151.646 391.475 151.516C391.813 151.385 392.07 151.206 392.246 150.979C392.422 150.751 392.51 150.49 392.51 150.197ZM396.211 147.834V147.609C396.211 146.848 396.322 146.141 396.543 145.49C396.764 144.833 397.083 144.263 397.5 143.781C397.917 143.293 398.421 142.915 399.014 142.648C399.606 142.375 400.27 142.238 401.006 142.238C401.748 142.238 402.415 142.375 403.008 142.648C403.607 142.915 404.115 143.293 404.531 143.781C404.954 144.263 405.277 144.833 405.498 145.49C405.719 146.141 405.83 146.848 405.83 147.609V147.834C405.83 148.596 405.719 149.302 405.498 149.953C405.277 150.604 404.954 151.174 404.531 151.662C404.115 152.144 403.61 152.521 403.018 152.795C402.432 153.062 401.768 153.195 401.025 153.195C400.283 153.195 399.616 153.062 399.023 152.795C398.431 152.521 397.923 152.144 397.5 151.662C397.083 151.174 396.764 150.604 396.543 149.953C396.322 149.302 396.211 148.596 396.211 147.834ZM398.018 147.609V147.834C398.018 148.361 398.079 148.859 398.203 149.328C398.327 149.79 398.512 150.201 398.76 150.559C399.014 150.917 399.329 151.2 399.707 151.408C400.085 151.61 400.524 151.711 401.025 151.711C401.52 151.711 401.953 151.61 402.324 151.408C402.702 151.2 403.014 150.917 403.262 150.559C403.509 150.201 403.695 149.79 403.818 149.328C403.949 148.859 404.014 148.361 404.014 147.834V147.609C404.014 147.089 403.949 146.597 403.818 146.135C403.695 145.666 403.506 145.253 403.252 144.895C403.005 144.53 402.692 144.243 402.314 144.035C401.943 143.827 401.507 143.723 401.006 143.723C400.511 143.723 400.075 143.827 399.697 144.035C399.326 144.243 399.014 144.53 398.76 144.895C398.512 145.253 398.327 145.666 398.203 146.135C398.079 146.597 398.018 147.089 398.018 147.609ZM409.902 144.094V153H408.096V142.434H409.854L409.902 144.094ZM413.203 142.375L413.193 144.055C413.044 144.022 412.9 144.003 412.764 143.996C412.633 143.983 412.484 143.977 412.314 143.977C411.898 143.977 411.53 144.042 411.211 144.172C410.892 144.302 410.622 144.484 410.4 144.719C410.179 144.953 410.003 145.233 409.873 145.559C409.749 145.878 409.668 146.229 409.629 146.613L409.121 146.906C409.121 146.268 409.183 145.669 409.307 145.109C409.437 144.549 409.635 144.055 409.902 143.625C410.169 143.189 410.508 142.85 410.918 142.609C411.335 142.362 411.829 142.238 412.402 142.238C412.533 142.238 412.682 142.255 412.852 142.287C413.021 142.313 413.138 142.342 413.203 142.375ZM419.785 142.434V143.82H414.072V142.434H419.785ZM416.006 139.865H417.812V150.383C417.812 150.741 417.868 151.011 417.979 151.193C418.089 151.376 418.232 151.496 418.408 151.555C418.584 151.613 418.773 151.643 418.975 151.643C419.124 151.643 419.281 151.63 419.443 151.604C419.613 151.571 419.74 151.545 419.824 151.525L419.834 153C419.691 153.046 419.502 153.088 419.268 153.127C419.04 153.173 418.763 153.195 418.438 153.195C417.995 153.195 417.588 153.107 417.217 152.932C416.846 152.756 416.549 152.463 416.328 152.053C416.113 151.636 416.006 151.076 416.006 150.373V139.865ZM432.207 146.35H428.604L428.584 144.836H431.855C432.396 144.836 432.868 144.745 433.271 144.562C433.675 144.38 433.988 144.12 434.209 143.781C434.437 143.436 434.551 143.026 434.551 142.551C434.551 142.03 434.45 141.607 434.248 141.281C434.053 140.949 433.75 140.708 433.34 140.559C432.936 140.402 432.422 140.324 431.797 140.324H429.023V153H427.139V138.781H431.797C432.526 138.781 433.177 138.856 433.75 139.006C434.323 139.149 434.808 139.377 435.205 139.689C435.609 139.995 435.915 140.386 436.123 140.861C436.331 141.337 436.436 141.906 436.436 142.57C436.436 143.156 436.286 143.687 435.986 144.162C435.687 144.631 435.27 145.015 434.736 145.314C434.209 145.614 433.59 145.806 432.881 145.891L432.207 146.35ZM432.119 153H427.861L428.926 151.467H432.119C432.718 151.467 433.226 151.363 433.643 151.154C434.066 150.946 434.388 150.653 434.609 150.275C434.831 149.891 434.941 149.439 434.941 148.918C434.941 148.391 434.847 147.935 434.658 147.551C434.469 147.167 434.173 146.87 433.77 146.662C433.366 146.454 432.845 146.35 432.207 146.35H429.521L429.541 144.836H433.213L433.613 145.383C434.297 145.441 434.876 145.637 435.352 145.969C435.827 146.294 436.188 146.711 436.436 147.219C436.689 147.727 436.816 148.286 436.816 148.898C436.816 149.784 436.621 150.533 436.23 151.145C435.846 151.75 435.303 152.212 434.6 152.531C433.896 152.844 433.07 153 432.119 153Z" fill="black"/>
<path d="M374.555 178.602H375.586C376.091 178.602 376.508 178.518 376.836 178.352C377.169 178.18 377.417 177.948 377.578 177.656C377.745 177.359 377.828 177.026 377.828 176.656C377.828 176.219 377.755 175.852 377.609 175.555C377.464 175.258 377.245 175.034 376.953 174.883C376.661 174.732 376.292 174.656 375.844 174.656C375.438 174.656 375.078 174.737 374.766 174.898C374.458 175.055 374.216 175.279 374.039 175.57C373.867 175.862 373.781 176.206 373.781 176.602H372.336C372.336 176.023 372.482 175.497 372.773 175.023C373.065 174.549 373.474 174.172 374 173.891C374.531 173.609 375.146 173.469 375.844 173.469C376.531 173.469 377.133 173.591 377.648 173.836C378.164 174.076 378.565 174.435 378.852 174.914C379.138 175.388 379.281 175.979 379.281 176.688C379.281 176.974 379.214 177.281 379.078 177.609C378.948 177.932 378.742 178.234 378.461 178.516C378.185 178.797 377.826 179.029 377.383 179.211C376.94 179.388 376.409 179.477 375.789 179.477H374.555V178.602ZM374.555 179.789V178.922H375.789C376.513 178.922 377.112 179.008 377.586 179.18C378.06 179.352 378.432 179.581 378.703 179.867C378.979 180.154 379.172 180.469 379.281 180.812C379.396 181.151 379.453 181.49 379.453 181.828C379.453 182.359 379.362 182.831 379.18 183.242C379.003 183.654 378.75 184.003 378.422 184.289C378.099 184.576 377.719 184.792 377.281 184.938C376.844 185.083 376.367 185.156 375.852 185.156C375.357 185.156 374.891 185.086 374.453 184.945C374.021 184.805 373.638 184.602 373.305 184.336C372.971 184.065 372.711 183.734 372.523 183.344C372.336 182.948 372.242 182.497 372.242 181.992H373.688C373.688 182.388 373.773 182.734 373.945 183.031C374.122 183.328 374.372 183.56 374.695 183.727C375.023 183.888 375.409 183.969 375.852 183.969C376.294 183.969 376.674 183.893 376.992 183.742C377.315 183.586 377.562 183.352 377.734 183.039C377.911 182.727 378 182.333 378 181.859C378 181.385 377.901 180.997 377.703 180.695C377.505 180.388 377.224 180.161 376.859 180.016C376.5 179.865 376.076 179.789 375.586 179.789H374.555ZM387.016 178.352V185H385.57V176.547H386.938L387.016 178.352ZM386.672 180.453L386.07 180.43C386.076 179.852 386.161 179.318 386.328 178.828C386.495 178.333 386.729 177.904 387.031 177.539C387.333 177.174 387.693 176.893 388.109 176.695C388.531 176.492 388.997 176.391 389.508 176.391C389.924 176.391 390.299 176.448 390.633 176.562C390.966 176.672 391.25 176.849 391.484 177.094C391.724 177.339 391.906 177.656 392.031 178.047C392.156 178.432 392.219 178.904 392.219 179.461V185H390.766V179.445C390.766 179.003 390.701 178.648 390.57 178.383C390.44 178.112 390.25 177.917 390 177.797C389.75 177.672 389.443 177.609 389.078 177.609C388.719 177.609 388.391 177.685 388.094 177.836C387.802 177.987 387.549 178.195 387.336 178.461C387.128 178.727 386.964 179.031 386.844 179.375C386.729 179.714 386.672 180.073 386.672 180.453ZM395.984 176.547V185H394.531V176.547H395.984ZM394.422 174.305C394.422 174.07 394.492 173.872 394.633 173.711C394.779 173.549 394.992 173.469 395.273 173.469C395.549 173.469 395.76 173.549 395.906 173.711C396.057 173.872 396.133 174.07 396.133 174.305C396.133 174.529 396.057 174.721 395.906 174.883C395.76 175.039 395.549 175.117 395.273 175.117C394.992 175.117 394.779 175.039 394.633 174.883C394.492 174.721 394.422 174.529 394.422 174.305ZM403.781 176.547H405.094V184.82C405.094 185.565 404.943 186.201 404.641 186.727C404.339 187.253 403.917 187.651 403.375 187.922C402.839 188.198 402.219 188.336 401.516 188.336C401.224 188.336 400.88 188.289 400.484 188.195C400.094 188.107 399.708 187.953 399.328 187.734C398.953 187.521 398.638 187.232 398.383 186.867L399.141 186.008C399.495 186.435 399.865 186.732 400.25 186.898C400.641 187.065 401.026 187.148 401.406 187.148C401.865 187.148 402.26 187.062 402.594 186.891C402.927 186.719 403.185 186.464 403.367 186.125C403.555 185.792 403.648 185.38 403.648 184.891V178.406L403.781 176.547ZM397.961 180.867V180.703C397.961 180.057 398.036 179.471 398.188 178.945C398.344 178.414 398.565 177.958 398.852 177.578C399.143 177.198 399.495 176.906 399.906 176.703C400.318 176.495 400.781 176.391 401.297 176.391C401.828 176.391 402.292 176.484 402.688 176.672C403.089 176.854 403.427 177.122 403.703 177.477C403.984 177.826 404.206 178.247 404.367 178.742C404.529 179.237 404.641 179.797 404.703 180.422V181.141C404.646 181.76 404.534 182.318 404.367 182.812C404.206 183.307 403.984 183.729 403.703 184.078C403.427 184.427 403.089 184.695 402.688 184.883C402.286 185.065 401.818 185.156 401.281 185.156C400.776 185.156 400.318 185.049 399.906 184.836C399.5 184.622 399.151 184.323 398.859 183.938C398.568 183.552 398.344 183.099 398.188 182.578C398.036 182.052 397.961 181.482 397.961 180.867ZM399.406 180.703V180.867C399.406 181.289 399.448 181.685 399.531 182.055C399.62 182.424 399.753 182.75 399.93 183.031C400.112 183.312 400.344 183.534 400.625 183.695C400.906 183.852 401.242 183.93 401.633 183.93C402.112 183.93 402.508 183.828 402.82 183.625C403.133 183.422 403.38 183.154 403.562 182.82C403.75 182.487 403.896 182.125 404 181.734V179.852C403.943 179.565 403.854 179.289 403.734 179.023C403.62 178.753 403.469 178.513 403.281 178.305C403.099 178.091 402.872 177.922 402.602 177.797C402.331 177.672 402.013 177.609 401.648 177.609C401.253 177.609 400.911 177.693 400.625 177.859C400.344 178.021 400.112 178.245 399.93 178.531C399.753 178.812 399.62 179.141 399.531 179.516C399.448 179.885 399.406 180.281 399.406 180.703ZM408.734 173V185H407.289V173H408.734ZM408.391 180.453L407.789 180.43C407.794 179.852 407.88 179.318 408.047 178.828C408.214 178.333 408.448 177.904 408.75 177.539C409.052 177.174 409.411 176.893 409.828 176.695C410.25 176.492 410.716 176.391 411.227 176.391C411.643 176.391 412.018 176.448 412.352 176.562C412.685 176.672 412.969 176.849 413.203 177.094C413.443 177.339 413.625 177.656 413.75 178.047C413.875 178.432 413.938 178.904 413.938 179.461V185H412.484V179.445C412.484 179.003 412.419 178.648 412.289 178.383C412.159 178.112 411.969 177.917 411.719 177.797C411.469 177.672 411.161 177.609 410.797 177.609C410.438 177.609 410.109 177.685 409.812 177.836C409.521 177.987 409.268 178.195 409.055 178.461C408.846 178.727 408.682 179.031 408.562 179.375C408.448 179.714 408.391 180.073 408.391 180.453ZM419.641 176.547V177.656H415.07V176.547H419.641ZM416.617 174.492H418.062V182.906C418.062 183.193 418.107 183.409 418.195 183.555C418.284 183.701 418.398 183.797 418.539 183.844C418.68 183.891 418.831 183.914 418.992 183.914C419.112 183.914 419.237 183.904 419.367 183.883C419.503 183.857 419.604 183.836 419.672 183.82L419.68 185C419.565 185.036 419.414 185.07 419.227 185.102C419.044 185.138 418.823 185.156 418.562 185.156C418.208 185.156 417.883 185.086 417.586 184.945C417.289 184.805 417.052 184.57 416.875 184.242C416.703 183.909 416.617 183.461 416.617 182.898V174.492ZM426.258 182.758C426.258 182.549 426.211 182.357 426.117 182.18C426.029 181.997 425.844 181.833 425.562 181.688C425.286 181.536 424.87 181.406 424.312 181.297C423.844 181.198 423.419 181.081 423.039 180.945C422.664 180.81 422.344 180.646 422.078 180.453C421.818 180.26 421.617 180.034 421.477 179.773C421.336 179.513 421.266 179.208 421.266 178.859C421.266 178.526 421.339 178.211 421.484 177.914C421.635 177.617 421.846 177.354 422.117 177.125C422.393 176.896 422.724 176.716 423.109 176.586C423.495 176.456 423.924 176.391 424.398 176.391C425.076 176.391 425.654 176.51 426.133 176.75C426.612 176.99 426.979 177.31 427.234 177.711C427.49 178.107 427.617 178.547 427.617 179.031H426.172C426.172 178.797 426.102 178.57 425.961 178.352C425.826 178.128 425.625 177.943 425.359 177.797C425.099 177.651 424.779 177.578 424.398 177.578C423.997 177.578 423.672 177.641 423.422 177.766C423.177 177.885 422.997 178.039 422.883 178.227C422.773 178.414 422.719 178.612 422.719 178.82C422.719 178.977 422.745 179.117 422.797 179.242C422.854 179.362 422.953 179.474 423.094 179.578C423.234 179.677 423.432 179.771 423.688 179.859C423.943 179.948 424.268 180.036 424.664 180.125C425.357 180.281 425.927 180.469 426.375 180.688C426.823 180.906 427.156 181.174 427.375 181.492C427.594 181.81 427.703 182.195 427.703 182.648C427.703 183.018 427.625 183.357 427.469 183.664C427.318 183.971 427.096 184.237 426.805 184.461C426.518 184.68 426.174 184.852 425.773 184.977C425.378 185.096 424.932 185.156 424.438 185.156C423.693 185.156 423.062 185.023 422.547 184.758C422.031 184.492 421.641 184.148 421.375 183.727C421.109 183.305 420.977 182.859 420.977 182.391H422.43C422.451 182.786 422.565 183.102 422.773 183.336C422.982 183.565 423.237 183.729 423.539 183.828C423.841 183.922 424.141 183.969 424.438 183.969C424.833 183.969 425.164 183.917 425.43 183.812C425.701 183.708 425.906 183.565 426.047 183.383C426.188 183.201 426.258 182.992 426.258 182.758Z" fill="black" fill-opacity="0.5"/>
<path d="M377.592 216.908V220.996H375.486V216.908H377.592ZM377.332 239.234V242.898H375.24V239.234H377.332ZM379.396 234.818C379.396 234.29 379.287 233.829 379.068 233.438C378.859 233.036 378.512 232.676 378.029 232.357C377.546 232.029 376.899 231.724 376.088 231.441C374.921 231.031 373.9 230.571 373.025 230.061C372.16 229.541 371.485 228.903 371.002 228.146C370.528 227.381 370.291 226.428 370.291 225.289C370.291 224.168 370.546 223.197 371.057 222.377C371.576 221.557 372.296 220.923 373.217 220.477C374.137 220.03 375.213 219.807 376.443 219.807C377.391 219.807 378.243 219.948 379 220.23C379.766 220.513 380.417 220.928 380.955 221.475C381.493 222.021 381.903 222.696 382.186 223.498C382.477 224.291 382.623 225.202 382.623 226.232H379.342C379.342 225.649 379.273 225.13 379.137 224.674C379.009 224.209 378.818 223.817 378.562 223.498C378.307 223.17 377.997 222.919 377.633 222.746C377.277 222.573 376.872 222.486 376.416 222.486C375.769 222.486 375.236 222.609 374.816 222.855C374.397 223.092 374.087 223.421 373.887 223.84C373.695 224.259 373.6 224.738 373.6 225.275C373.6 225.795 373.7 226.251 373.9 226.643C374.101 227.035 374.443 227.39 374.926 227.709C375.418 228.019 376.092 228.333 376.949 228.652C378.125 229.072 379.141 229.541 379.998 230.061C380.864 230.571 381.529 231.204 381.994 231.961C382.468 232.708 382.705 233.652 382.705 234.791C382.705 235.967 382.432 236.965 381.885 237.785C381.347 238.605 380.59 239.23 379.615 239.658C378.649 240.077 377.523 240.287 376.238 240.287C375.427 240.287 374.62 240.182 373.818 239.973C373.025 239.754 372.305 239.398 371.658 238.906C371.011 238.414 370.496 237.762 370.113 236.951C369.73 236.131 369.539 235.128 369.539 233.943H372.848C372.848 234.654 372.943 235.247 373.135 235.721C373.326 236.195 373.586 236.568 373.914 236.842C374.242 237.115 374.607 237.311 375.008 237.43C375.418 237.548 375.828 237.607 376.238 237.607C376.922 237.607 377.496 237.493 377.961 237.266C378.435 237.029 378.79 236.701 379.027 236.281C379.273 235.853 379.396 235.365 379.396 234.818ZM389.459 228.557H391.428C392.193 228.557 392.827 228.424 393.328 228.16C393.839 227.896 394.217 227.531 394.463 227.066C394.709 226.602 394.832 226.068 394.832 225.467C394.832 224.838 394.718 224.3 394.49 223.854C394.271 223.398 393.934 223.047 393.479 222.801C393.032 222.555 392.462 222.432 391.77 222.432C391.186 222.432 390.658 222.55 390.184 222.787C389.719 223.015 389.35 223.343 389.076 223.771C388.803 224.191 388.666 224.692 388.666 225.275H385.357C385.357 224.218 385.635 223.279 386.191 222.459C386.747 221.639 387.504 220.996 388.461 220.531C389.427 220.057 390.512 219.82 391.715 219.82C393 219.82 394.121 220.035 395.078 220.463C396.044 220.882 396.796 221.511 397.334 222.35C397.872 223.188 398.141 224.227 398.141 225.467C398.141 226.032 398.008 226.606 397.744 227.189C397.48 227.773 397.088 228.306 396.568 228.789C396.049 229.263 395.402 229.65 394.627 229.951C393.852 230.243 392.954 230.389 391.934 230.389H389.459V228.557ZM389.459 231.127V229.322H391.934C393.1 229.322 394.094 229.459 394.914 229.732C395.743 230.006 396.418 230.384 396.938 230.867C397.457 231.341 397.835 231.883 398.072 232.494C398.318 233.105 398.441 233.752 398.441 234.436C398.441 235.365 398.273 236.195 397.936 236.924C397.607 237.644 397.138 238.255 396.527 238.756C395.917 239.257 395.201 239.635 394.381 239.891C393.57 240.146 392.686 240.273 391.729 240.273C390.872 240.273 390.051 240.155 389.268 239.918C388.484 239.681 387.782 239.33 387.162 238.865C386.542 238.391 386.05 237.803 385.686 237.102C385.33 236.391 385.152 235.57 385.152 234.641H388.447C388.447 235.233 388.584 235.757 388.857 236.213C389.14 236.66 389.532 237.01 390.033 237.266C390.544 237.521 391.127 237.648 391.783 237.648C392.476 237.648 393.073 237.525 393.574 237.279C394.076 237.033 394.458 236.669 394.723 236.186C394.996 235.702 395.133 235.119 395.133 234.436C395.133 233.661 394.982 233.032 394.682 232.549C394.381 232.066 393.952 231.71 393.396 231.482C392.84 231.245 392.184 231.127 391.428 231.127H389.459ZM414.479 228.379V231.633C414.479 233.191 414.324 234.522 414.014 235.625C413.713 236.719 413.275 237.607 412.701 238.291C412.127 238.975 411.439 239.476 410.637 239.795C409.844 240.114 408.955 240.273 407.971 240.273C407.187 240.273 406.458 240.173 405.783 239.973C405.118 239.772 404.516 239.458 403.979 239.029C403.441 238.601 402.98 238.049 402.598 237.375C402.224 236.691 401.932 235.876 401.723 234.928C401.522 233.98 401.422 232.882 401.422 231.633V228.379C401.422 226.811 401.577 225.49 401.887 224.414C402.197 223.329 402.639 222.45 403.213 221.775C403.787 221.092 404.471 220.595 405.264 220.285C406.066 219.975 406.959 219.82 407.943 219.82C408.736 219.82 409.465 219.921 410.131 220.121C410.805 220.312 411.407 220.618 411.936 221.037C412.473 221.456 412.929 222.003 413.303 222.678C413.686 223.343 413.977 224.15 414.178 225.098C414.378 226.036 414.479 227.13 414.479 228.379ZM411.184 232.098V227.887C411.184 227.094 411.138 226.396 411.047 225.795C410.956 225.184 410.819 224.669 410.637 224.25C410.464 223.822 410.245 223.475 409.98 223.211C409.716 222.938 409.415 222.742 409.078 222.623C408.741 222.495 408.363 222.432 407.943 222.432C407.433 222.432 406.977 222.532 406.576 222.732C406.175 222.924 405.838 223.234 405.564 223.662C405.291 224.09 405.081 224.656 404.936 225.357C404.799 226.05 404.73 226.893 404.73 227.887V232.098C404.73 232.9 404.776 233.606 404.867 234.217C404.958 234.827 405.095 235.352 405.277 235.789C405.46 236.217 405.678 236.573 405.934 236.855C406.198 237.129 406.499 237.329 406.836 237.457C407.182 237.585 407.561 237.648 407.971 237.648C408.49 237.648 408.951 237.548 409.352 237.348C409.753 237.147 410.09 236.828 410.363 236.391C410.637 235.944 410.842 235.365 410.979 234.654C411.115 233.943 411.184 233.091 411.184 232.098ZM430.393 228.379V231.633C430.393 233.191 430.238 234.522 429.928 235.625C429.627 236.719 429.189 237.607 428.615 238.291C428.041 238.975 427.353 239.476 426.551 239.795C425.758 240.114 424.869 240.273 423.885 240.273C423.101 240.273 422.372 240.173 421.697 239.973C421.032 239.772 420.43 239.458 419.893 239.029C419.355 238.601 418.895 238.049 418.512 237.375C418.138 236.691 417.846 235.876 417.637 234.928C417.436 233.98 417.336 232.882 417.336 231.633V228.379C417.336 226.811 417.491 225.49 417.801 224.414C418.111 223.329 418.553 222.45 419.127 221.775C419.701 221.092 420.385 220.595 421.178 220.285C421.98 219.975 422.873 219.82 423.857 219.82C424.65 219.82 425.38 219.921 426.045 220.121C426.719 220.312 427.321 220.618 427.85 221.037C428.387 221.456 428.843 222.003 429.217 222.678C429.6 223.343 429.891 224.15 430.092 225.098C430.292 226.036 430.393 227.13 430.393 228.379ZM427.098 232.098V227.887C427.098 227.094 427.052 226.396 426.961 225.795C426.87 225.184 426.733 224.669 426.551 224.25C426.378 223.822 426.159 223.475 425.895 223.211C425.63 222.938 425.329 222.742 424.992 222.623C424.655 222.495 424.277 222.432 423.857 222.432C423.347 222.432 422.891 222.532 422.49 222.732C422.089 222.924 421.752 223.234 421.479 223.662C421.205 224.09 420.995 224.656 420.85 225.357C420.713 226.05 420.645 226.893 420.645 227.887V232.098C420.645 232.9 420.69 233.606 420.781 234.217C420.872 234.827 421.009 235.352 421.191 235.789C421.374 236.217 421.592 236.573 421.848 236.855C422.112 237.129 422.413 237.329 422.75 237.457C423.096 237.585 423.475 237.648 423.885 237.648C424.404 237.648 424.865 237.548 425.266 237.348C425.667 237.147 426.004 236.828 426.277 236.391C426.551 235.944 426.756 235.365 426.893 234.654C427.029 233.943 427.098 233.091 427.098 232.098Z" fill="black"/>
</svg>
