<svg width="1100" height="232" viewBox="0 0 1100 232" fill="none" xmlns="http://www.w3.org/2000/svg">
<rect x="0.5" y="0.5" width="1099" height="231" rx="5.5" stroke="black" stroke-opacity="0.1"/>
<path d="M25.0098 37.8066L27.8418 26.7812H29.3262L29.1602 29.623L26.1328 41H24.5898L25.0098 37.8066ZM22.8906 26.7812L25.1855 37.7188L25.3906 41H23.75L20.459 26.7812H22.8906ZM32.5391 37.6895L34.8047 26.7812H37.2461L33.9551 41H32.3145L32.5391 37.6895ZM29.9023 26.7812L32.7051 37.8359L33.1152 41H31.5723L28.5938 29.623L28.4375 26.7812H29.9023ZM44.4531 38.8809V33.8418C44.4531 33.4642 44.3848 33.1387 44.248 32.8652C44.1113 32.5918 43.903 32.3802 43.623 32.2305C43.3496 32.0807 43.0046 32.0059 42.5879 32.0059C42.2038 32.0059 41.8717 32.071 41.5918 32.2012C41.3118 32.3314 41.0938 32.5072 40.9375 32.7285C40.7812 32.9499 40.7031 33.2005 40.7031 33.4805H38.3594C38.3594 33.0638 38.4603 32.6602 38.6621 32.2695C38.8639 31.8789 39.1569 31.5306 39.541 31.2246C39.9251 30.9186 40.3841 30.6777 40.918 30.502C41.4518 30.3262 42.0508 30.2383 42.7148 30.2383C43.5091 30.2383 44.2122 30.3717 44.8242 30.6387C45.4427 30.9056 45.9277 31.3092 46.2793 31.8496C46.6374 32.3835 46.8164 33.054 46.8164 33.8613V38.5586C46.8164 39.0404 46.849 39.4733 46.9141 39.8574C46.9857 40.235 47.0866 40.5638 47.2168 40.8438V41H44.8047C44.694 40.7461 44.6061 40.4238 44.541 40.0332C44.4824 39.6361 44.4531 39.252 44.4531 38.8809ZM44.7949 34.5742L44.8145 36.0293H43.125C42.6888 36.0293 42.3047 36.0716 41.9727 36.1562C41.6406 36.2344 41.3639 36.3516 41.1426 36.5078C40.9212 36.6641 40.7552 36.8529 40.6445 37.0742C40.5339 37.2956 40.4785 37.5462 40.4785 37.8262C40.4785 38.1061 40.5436 38.3633 40.6738 38.5977C40.804 38.8255 40.9928 39.0046 41.2402 39.1348C41.4941 39.265 41.8001 39.3301 42.1582 39.3301C42.64 39.3301 43.0599 39.2324 43.418 39.0371C43.7826 38.8353 44.069 38.5911 44.2773 38.3047C44.4857 38.0117 44.5964 37.735 44.6094 37.4746L45.3711 38.5195C45.293 38.7865 45.1595 39.0729 44.9707 39.3789C44.7819 39.6849 44.5345 39.9779 44.2285 40.2578C43.929 40.5312 43.5677 40.7559 43.1445 40.9316C42.7279 41.1074 42.2461 41.1953 41.6992 41.1953C41.0091 41.1953 40.3939 41.0586 39.8535 40.7852C39.3132 40.5052 38.89 40.1309 38.584 39.6621C38.278 39.1868 38.125 38.6497 38.125 38.0508C38.125 37.4909 38.2292 36.9961 38.4375 36.5664C38.6523 36.1302 38.9648 35.7656 39.375 35.4727C39.7917 35.1797 40.2995 34.9583 40.8984 34.8086C41.4974 34.6523 42.181 34.5742 42.9492 34.5742H44.7949ZM51.7969 26V41H49.4336V26H51.7969ZM56.8945 26V41H54.5312V26H56.8945ZM64.1309 41.1953C63.3496 41.1953 62.6432 41.0684 62.0117 40.8145C61.3867 40.554 60.8529 40.1927 60.4102 39.7305C59.974 39.2682 59.6387 38.7246 59.4043 38.0996C59.1699 37.4746 59.0527 36.8008 59.0527 36.0781V35.6875C59.0527 34.8607 59.1732 34.112 59.4141 33.4414C59.6549 32.7708 59.9902 32.1979 60.4199 31.7227C60.8496 31.2409 61.3574 30.873 61.9434 30.6191C62.5293 30.3652 63.1641 30.2383 63.8477 30.2383C64.6029 30.2383 65.2637 30.3652 65.8301 30.6191C66.3965 30.873 66.8652 31.2311 67.2363 31.6934C67.6139 32.1491 67.8939 32.6927 68.0762 33.3242C68.265 33.9557 68.3594 34.6523 68.3594 35.4141V36.4199H60.1953V34.7305H66.0352V34.5449C66.0221 34.1217 65.9375 33.7246 65.7812 33.3535C65.6315 32.9824 65.4004 32.6829 65.0879 32.4551C64.7754 32.2272 64.3587 32.1133 63.8379 32.1133C63.4473 32.1133 63.099 32.1979 62.793 32.3672C62.4935 32.5299 62.2428 32.7676 62.041 33.0801C61.8392 33.3926 61.6829 33.7702 61.5723 34.2129C61.4681 34.6491 61.416 35.1406 61.416 35.6875V36.0781C61.416 36.5404 61.4779 36.9701 61.6016 37.3672C61.7318 37.7578 61.9206 38.0996 62.168 38.3926C62.4154 38.6855 62.7148 38.9167 63.0664 39.0859C63.418 39.2487 63.8184 39.3301 64.2676 39.3301C64.834 39.3301 65.3385 39.2161 65.7812 38.9883C66.224 38.7604 66.6081 38.4382 66.9336 38.0215L68.1738 39.2227C67.946 39.5547 67.6497 39.8737 67.2852 40.1797C66.9206 40.4792 66.4746 40.7233 65.9473 40.9121C65.4264 41.1009 64.821 41.1953 64.1309 41.1953ZM75.0391 30.4336V32.1523H69.082V30.4336H75.0391ZM70.8008 27.8457H73.1543V38.0801C73.1543 38.4056 73.1999 38.6562 73.291 38.832C73.3887 39.0013 73.5221 39.1152 73.6914 39.1738C73.8607 39.2324 74.0592 39.2617 74.2871 39.2617C74.4499 39.2617 74.6061 39.252 74.7559 39.2324C74.9056 39.2129 75.026 39.1934 75.1172 39.1738L75.127 40.9707C74.9316 41.0293 74.7038 41.0814 74.4434 41.127C74.1895 41.1725 73.8965 41.1953 73.5645 41.1953C73.0241 41.1953 72.5456 41.1009 72.1289 40.9121C71.7122 40.7168 71.3867 40.401 71.1523 39.9648C70.918 39.5286 70.8008 38.9492 70.8008 38.2266V27.8457ZM89.5508 37.3379C89.5508 37.0449 89.5052 36.7845 89.4141 36.5566C89.3294 36.3288 89.1764 36.1204 88.9551 35.9316C88.7337 35.7428 88.4212 35.5605 88.0176 35.3848C87.6204 35.2025 87.1126 35.0169 86.4941 34.8281C85.8171 34.6198 85.1921 34.3887 84.6191 34.1348C84.0527 33.8743 83.5579 33.5749 83.1348 33.2363C82.7116 32.8913 82.3828 32.4974 82.1484 32.0547C81.9141 31.6055 81.7969 31.0879 81.7969 30.502C81.7969 29.9225 81.9173 29.3952 82.1582 28.9199C82.4056 28.4447 82.7539 28.0345 83.2031 27.6895C83.6589 27.3379 84.196 27.0677 84.8145 26.8789C85.4329 26.6836 86.1165 26.5859 86.8652 26.5859C87.9199 26.5859 88.8281 26.7812 89.5898 27.1719C90.3581 27.5625 90.9473 28.0866 91.3574 28.7441C91.7741 29.4017 91.9824 30.1276 91.9824 30.9219H89.5508C89.5508 30.4531 89.4499 30.0397 89.248 29.6816C89.0527 29.3171 88.7533 29.0306 88.3496 28.8223C87.9525 28.6139 87.4479 28.5098 86.8359 28.5098C86.2565 28.5098 85.7747 28.5977 85.3906 28.7734C85.0065 28.9492 84.7201 29.1868 84.5312 29.4863C84.3424 29.7858 84.248 30.1243 84.248 30.502C84.248 30.7689 84.3099 31.013 84.4336 31.2344C84.5573 31.4492 84.7461 31.651 85 31.8398C85.2539 32.0221 85.5729 32.1947 85.957 32.3574C86.3411 32.5202 86.7936 32.6764 87.3145 32.8262C88.1022 33.0605 88.7891 33.321 89.375 33.6074C89.9609 33.8874 90.4492 34.2064 90.8398 34.5645C91.2305 34.9225 91.5234 35.3294 91.7188 35.7852C91.9141 36.2344 92.0117 36.7454 92.0117 37.3184C92.0117 37.9173 91.8913 38.4577 91.6504 38.9395C91.4095 39.4147 91.0645 39.8216 90.6152 40.1602C90.1725 40.4922 89.6387 40.7493 89.0137 40.9316C88.3952 41.1074 87.7051 41.1953 86.9434 41.1953C86.2598 41.1953 85.5859 41.1042 84.9219 40.9219C84.2643 40.7396 83.6654 40.4629 83.125 40.0918C82.5846 39.7142 82.1549 39.2454 81.8359 38.6855C81.5169 38.1191 81.3574 37.4583 81.3574 36.7031H83.8086C83.8086 37.1654 83.8867 37.5592 84.043 37.8848C84.2057 38.2103 84.4303 38.4772 84.7168 38.6855C85.0033 38.8874 85.3353 39.0371 85.7129 39.1348C86.097 39.2324 86.5072 39.2812 86.9434 39.2812C87.5163 39.2812 87.9948 39.1999 88.3789 39.0371C88.7695 38.8743 89.0625 38.6465 89.2578 38.3535C89.4531 38.0605 89.5508 37.722 89.5508 37.3379ZM100.303 38.5098V30.4336H102.666V41H100.439L100.303 38.5098ZM100.635 36.3125L101.426 36.293C101.426 37.0026 101.348 37.6569 101.191 38.2559C101.035 38.8483 100.794 39.3659 100.469 39.8086C100.143 40.2448 99.7266 40.5866 99.2188 40.834C98.7109 41.0749 98.1022 41.1953 97.3926 41.1953C96.8783 41.1953 96.4062 41.1204 95.9766 40.9707C95.5469 40.821 95.1758 40.5898 94.8633 40.2773C94.5573 39.9648 94.3197 39.5579 94.1504 39.0566C93.9811 38.5553 93.8965 37.9564 93.8965 37.2598V30.4336H96.25V37.2793C96.25 37.6634 96.2956 37.9857 96.3867 38.2461C96.4779 38.5 96.6016 38.7051 96.7578 38.8613C96.9141 39.0176 97.0964 39.1283 97.3047 39.1934C97.513 39.2585 97.7344 39.291 97.9688 39.291C98.6393 39.291 99.1667 39.1608 99.5508 38.9004C99.9414 38.6335 100.218 38.2754 100.381 37.8262C100.55 37.377 100.635 36.8724 100.635 36.3125ZM107.432 32.582V41H105.078V30.4336H107.295L107.432 32.582ZM107.051 35.3262L106.25 35.3164C106.25 34.5872 106.341 33.9134 106.523 33.2949C106.706 32.6764 106.973 32.1393 107.324 31.6836C107.676 31.2214 108.112 30.8665 108.633 30.6191C109.16 30.3652 109.769 30.2383 110.459 30.2383C110.941 30.2383 111.38 30.3099 111.777 30.4531C112.181 30.5898 112.529 30.8079 112.822 31.1074C113.122 31.4069 113.35 31.791 113.506 32.2598C113.669 32.7285 113.75 33.2949 113.75 33.959V41H111.396V34.1641C111.396 33.6497 111.318 33.2461 111.162 32.9531C111.012 32.6602 110.794 32.4518 110.508 32.3281C110.228 32.1979 109.893 32.1328 109.502 32.1328C109.059 32.1328 108.682 32.2174 108.369 32.3867C108.063 32.556 107.812 32.7871 107.617 33.0801C107.422 33.373 107.279 33.7116 107.188 34.0957C107.096 34.4798 107.051 34.89 107.051 35.3262ZM113.604 34.7012L112.5 34.9453C112.5 34.3073 112.588 33.7051 112.764 33.1387C112.946 32.5658 113.21 32.0645 113.555 31.6348C113.906 31.1986 114.339 30.8568 114.854 30.6094C115.368 30.362 115.957 30.2383 116.621 30.2383C117.161 30.2383 117.643 30.3132 118.066 30.4629C118.496 30.6061 118.861 30.834 119.16 31.1465C119.46 31.459 119.688 31.8659 119.844 32.3672C120 32.862 120.078 33.4609 120.078 34.1641V41H117.715V34.1543C117.715 33.6204 117.637 33.207 117.48 32.9141C117.331 32.6211 117.116 32.4193 116.836 32.3086C116.556 32.1914 116.221 32.1328 115.83 32.1328C115.465 32.1328 115.143 32.2012 114.863 32.3379C114.59 32.4681 114.359 32.6536 114.17 32.8945C113.981 33.1289 113.838 33.3991 113.74 33.7051C113.649 34.0111 113.604 34.3431 113.604 34.7012ZM124.854 32.582V41H122.5V30.4336H124.717L124.854 32.582ZM124.473 35.3262L123.672 35.3164C123.672 34.5872 123.763 33.9134 123.945 33.2949C124.128 32.6764 124.395 32.1393 124.746 31.6836C125.098 31.2214 125.534 30.8665 126.055 30.6191C126.582 30.3652 127.191 30.2383 127.881 30.2383C128.363 30.2383 128.802 30.3099 129.199 30.4531C129.603 30.5898 129.951 30.8079 130.244 31.1074C130.544 31.4069 130.771 31.791 130.928 32.2598C131.09 32.7285 131.172 33.2949 131.172 33.959V41H128.818V34.1641C128.818 33.6497 128.74 33.2461 128.584 32.9531C128.434 32.6602 128.216 32.4518 127.93 32.3281C127.65 32.1979 127.314 32.1328 126.924 32.1328C126.481 32.1328 126.104 32.2174 125.791 32.3867C125.485 32.556 125.234 32.7871 125.039 33.0801C124.844 33.373 124.701 33.7116 124.609 34.0957C124.518 34.4798 124.473 34.89 124.473 35.3262ZM131.025 34.7012L129.922 34.9453C129.922 34.3073 130.01 33.7051 130.186 33.1387C130.368 32.5658 130.632 32.0645 130.977 31.6348C131.328 31.1986 131.761 30.8568 132.275 30.6094C132.79 30.362 133.379 30.2383 134.043 30.2383C134.583 30.2383 135.065 30.3132 135.488 30.4629C135.918 30.6061 136.283 30.834 136.582 31.1465C136.882 31.459 137.109 31.8659 137.266 32.3672C137.422 32.862 137.5 33.4609 137.5 34.1641V41H135.137V34.1543C135.137 33.6204 135.059 33.207 134.902 32.9141C134.753 32.6211 134.538 32.4193 134.258 32.3086C133.978 32.1914 133.643 32.1328 133.252 32.1328C132.887 32.1328 132.565 32.2012 132.285 32.3379C132.012 32.4681 131.781 32.6536 131.592 32.8945C131.403 33.1289 131.26 33.3991 131.162 33.7051C131.071 34.0111 131.025 34.3431 131.025 34.7012ZM145.879 38.8809V33.8418C145.879 33.4642 145.811 33.1387 145.674 32.8652C145.537 32.5918 145.329 32.3802 145.049 32.2305C144.775 32.0807 144.43 32.0059 144.014 32.0059C143.63 32.0059 143.298 32.071 143.018 32.2012C142.738 32.3314 142.52 32.5072 142.363 32.7285C142.207 32.9499 142.129 33.2005 142.129 33.4805H139.785C139.785 33.0638 139.886 32.6602 140.088 32.2695C140.29 31.8789 140.583 31.5306 140.967 31.2246C141.351 30.9186 141.81 30.6777 142.344 30.502C142.878 30.3262 143.477 30.2383 144.141 30.2383C144.935 30.2383 145.638 30.3717 146.25 30.6387C146.868 30.9056 147.354 31.3092 147.705 31.8496C148.063 32.3835 148.242 33.054 148.242 33.8613V38.5586C148.242 39.0404 148.275 39.4733 148.34 39.8574C148.411 40.235 148.512 40.5638 148.643 40.8438V41H146.23C146.12 40.7461 146.032 40.4238 145.967 40.0332C145.908 39.6361 145.879 39.252 145.879 38.8809ZM146.221 34.5742L146.24 36.0293H144.551C144.115 36.0293 143.73 36.0716 143.398 36.1562C143.066 36.2344 142.79 36.3516 142.568 36.5078C142.347 36.6641 142.181 36.8529 142.07 37.0742C141.96 37.2956 141.904 37.5462 141.904 37.8262C141.904 38.1061 141.969 38.3633 142.1 38.5977C142.23 38.8255 142.419 39.0046 142.666 39.1348C142.92 39.265 143.226 39.3301 143.584 39.3301C144.066 39.3301 144.486 39.2324 144.844 39.0371C145.208 38.8353 145.495 38.5911 145.703 38.3047C145.911 38.0117 146.022 37.735 146.035 37.4746L146.797 38.5195C146.719 38.7865 146.585 39.0729 146.396 39.3789C146.208 39.6849 145.96 39.9779 145.654 40.2578C145.355 40.5312 144.993 40.7559 144.57 40.9316C144.154 41.1074 143.672 41.1953 143.125 41.1953C142.435 41.1953 141.82 41.0586 141.279 40.7852C140.739 40.5052 140.316 40.1309 140.01 39.6621C139.704 39.1868 139.551 38.6497 139.551 38.0508C139.551 37.4909 139.655 36.9961 139.863 36.5664C140.078 36.1302 140.391 35.7656 140.801 35.4727C141.217 35.1797 141.725 34.9583 142.324 34.8086C142.923 34.6523 143.607 34.5742 144.375 34.5742H146.221ZM153.066 32.4453V41H150.713V30.4336H152.959L153.066 32.4453ZM156.299 30.3652L156.279 32.5527C156.136 32.5267 155.98 32.5072 155.811 32.4941C155.648 32.4811 155.485 32.4746 155.322 32.4746C154.919 32.4746 154.564 32.5332 154.258 32.6504C153.952 32.7611 153.695 32.9238 153.486 33.1387C153.285 33.347 153.128 33.6009 153.018 33.9004C152.907 34.1999 152.842 34.5352 152.822 34.9062L152.285 34.9453C152.285 34.2812 152.35 33.666 152.48 33.0996C152.611 32.5332 152.806 32.0352 153.066 31.6055C153.333 31.1758 153.665 30.8405 154.062 30.5996C154.466 30.3587 154.932 30.2383 155.459 30.2383C155.602 30.2383 155.755 30.2513 155.918 30.2773C156.087 30.3034 156.214 30.3327 156.299 30.3652ZM161.016 39.8477L163.887 30.4336H166.406L162.168 42.6113C162.07 42.8717 161.943 43.1549 161.787 43.4609C161.631 43.7669 161.426 44.0566 161.172 44.3301C160.924 44.61 160.615 44.8346 160.244 45.0039C159.873 45.1797 159.424 45.2676 158.896 45.2676C158.688 45.2676 158.486 45.248 158.291 45.209C158.102 45.1764 157.923 45.1406 157.754 45.1016L157.744 43.3047C157.809 43.3112 157.887 43.3177 157.979 43.3242C158.076 43.3307 158.154 43.334 158.213 43.334C158.604 43.334 158.929 43.2852 159.189 43.1875C159.45 43.0964 159.661 42.9466 159.824 42.7383C159.993 42.5299 160.137 42.25 160.254 41.8984L161.016 39.8477ZM159.395 30.4336L161.904 38.3438L162.324 40.8242L160.693 41.2441L156.855 30.4336H159.395Z" fill="black"/>
<path d="M25.5312 66.6328L21.7656 77H20.2266L24.5625 65.625H25.5547L25.5312 66.6328ZM28.6875 77L24.9141 66.6328L24.8906 65.625H25.8828L30.2344 77H28.6875ZM28.4922 72.7891V74.0234H22.1016V72.7891H28.4922ZM32.9766 70.2266V77H31.5234V68.5469H32.8984L32.9766 70.2266ZM32.6797 72.4531L32.0078 72.4297C32.013 71.8516 32.0885 71.3177 32.2344 70.8281C32.3802 70.3333 32.5964 69.9036 32.8828 69.5391C33.1693 69.1745 33.526 68.8932 33.9531 68.6953C34.3802 68.4922 34.875 68.3906 35.4375 68.3906C35.8333 68.3906 36.1979 68.4479 36.5312 68.5625C36.8646 68.6719 37.1536 68.8464 37.3984 69.0859C37.6432 69.3255 37.8333 69.6328 37.9688 70.0078C38.1042 70.3828 38.1719 70.8359 38.1719 71.3672V77H36.7266V71.4375C36.7266 70.9948 36.651 70.6406 36.5 70.375C36.3542 70.1094 36.1458 69.9167 35.875 69.7969C35.6042 69.6719 35.2865 69.6094 34.9219 69.6094C34.4948 69.6094 34.138 69.6849 33.8516 69.8359C33.5651 69.987 33.3359 70.1953 33.1641 70.4609C32.9922 70.7266 32.8672 71.0312 32.7891 71.375C32.7161 71.7135 32.6797 72.0729 32.6797 72.4531ZM38.1562 71.6562L37.1875 71.9531C37.1927 71.4896 37.2682 71.0443 37.4141 70.6172C37.5651 70.1901 37.7812 69.8099 38.0625 69.4766C38.349 69.1432 38.7005 68.8802 39.1172 68.6875C39.5339 68.4896 40.0104 68.3906 40.5469 68.3906C41 68.3906 41.401 68.4505 41.75 68.5703C42.1042 68.6901 42.401 68.875 42.6406 69.125C42.8854 69.3698 43.0703 69.6849 43.1953 70.0703C43.3203 70.4557 43.3828 70.9141 43.3828 71.4453V77H41.9297V71.4297C41.9297 70.9557 41.8542 70.5885 41.7031 70.3281C41.5573 70.0625 41.349 69.8776 41.0781 69.7734C40.8125 69.6641 40.4948 69.6094 40.125 69.6094C39.8073 69.6094 39.526 69.6641 39.2812 69.7734C39.0365 69.8828 38.8307 70.0339 38.6641 70.2266C38.4974 70.4141 38.3698 70.6302 38.2812 70.875C38.1979 71.1198 38.1562 71.3802 38.1562 71.6562ZM45.1875 72.8672V72.6875C45.1875 72.0781 45.276 71.513 45.4531 70.9922C45.6302 70.4661 45.8854 70.0104 46.2188 69.625C46.5521 69.2344 46.9557 68.9323 47.4297 68.7188C47.9036 68.5 48.4349 68.3906 49.0234 68.3906C49.6172 68.3906 50.151 68.5 50.625 68.7188C51.1042 68.9323 51.5104 69.2344 51.8438 69.625C52.1823 70.0104 52.4401 70.4661 52.6172 70.9922C52.7943 71.513 52.8828 72.0781 52.8828 72.6875V72.8672C52.8828 73.4766 52.7943 74.0417 52.6172 74.5625C52.4401 75.0833 52.1823 75.5391 51.8438 75.9297C51.5104 76.3151 51.1068 76.6172 50.6328 76.8359C50.1641 77.0495 49.6328 77.1562 49.0391 77.1562C48.4453 77.1562 47.9115 77.0495 47.4375 76.8359C46.9635 76.6172 46.5573 76.3151 46.2188 75.9297C45.8854 75.5391 45.6302 75.0833 45.4531 74.5625C45.276 74.0417 45.1875 73.4766 45.1875 72.8672ZM46.6328 72.6875V72.8672C46.6328 73.2891 46.6823 73.6875 46.7812 74.0625C46.8802 74.4323 47.0286 74.7604 47.2266 75.0469C47.4297 75.3333 47.6823 75.5599 47.9844 75.7266C48.2865 75.888 48.638 75.9688 49.0391 75.9688C49.4349 75.9688 49.7812 75.888 50.0781 75.7266C50.3802 75.5599 50.6302 75.3333 50.8281 75.0469C51.026 74.7604 51.1745 74.4323 51.2734 74.0625C51.3776 73.6875 51.4297 73.2891 51.4297 72.8672V72.6875C51.4297 72.2708 51.3776 71.8776 51.2734 71.5078C51.1745 71.1328 51.0234 70.8021 50.8203 70.5156C50.6224 70.224 50.3724 69.9948 50.0703 69.8281C49.7734 69.6615 49.4245 69.5781 49.0234 69.5781C48.6276 69.5781 48.2786 69.6615 47.9766 69.8281C47.6797 69.9948 47.4297 70.224 47.2266 70.5156C47.0286 70.8021 46.8802 71.1328 46.7812 71.5078C46.6823 71.8776 46.6328 72.2708 46.6328 72.6875ZM59.8672 75.0469V68.5469H61.3203V77H59.9375L59.8672 75.0469ZM60.1406 73.2656L60.7422 73.25C60.7422 73.8125 60.6823 74.3333 60.5625 74.8125C60.4479 75.2865 60.2604 75.6979 60 76.0469C59.7396 76.3958 59.3984 76.6693 58.9766 76.8672C58.5547 77.0599 58.0417 77.1562 57.4375 77.1562C57.026 77.1562 56.6484 77.0964 56.3047 76.9766C55.9661 76.8568 55.6745 76.6719 55.4297 76.4219C55.1849 76.1719 54.9948 75.8464 54.8594 75.4453C54.7292 75.0443 54.6641 74.5625 54.6641 74V68.5469H56.1094V74.0156C56.1094 74.3958 56.151 74.7109 56.2344 74.9609C56.3229 75.2057 56.4401 75.401 56.5859 75.5469C56.737 75.6875 56.9036 75.7865 57.0859 75.8438C57.2734 75.901 57.4661 75.9297 57.6641 75.9297C58.2786 75.9297 58.7656 75.8125 59.125 75.5781C59.4844 75.3385 59.7422 75.0182 59.8984 74.6172C60.0599 74.2109 60.1406 73.7604 60.1406 73.2656ZM64.9688 70.3516V77H63.5234V68.5469H64.8906L64.9688 70.3516ZM64.625 72.4531L64.0234 72.4297C64.0286 71.8516 64.1146 71.3177 64.2812 70.8281C64.4479 70.3333 64.6823 69.9036 64.9844 69.5391C65.2865 69.1745 65.6458 68.8932 66.0625 68.6953C66.4844 68.4922 66.9505 68.3906 67.4609 68.3906C67.8776 68.3906 68.2526 68.4479 68.5859 68.5625C68.9193 68.6719 69.2031 68.849 69.4375 69.0938C69.6771 69.3385 69.8594 69.6562 69.9844 70.0469C70.1094 70.4323 70.1719 70.9036 70.1719 71.4609V77H68.7188V71.4453C68.7188 71.0026 68.6536 70.6484 68.5234 70.3828C68.3932 70.112 68.2031 69.9167 67.9531 69.7969C67.7031 69.6719 67.3958 69.6094 67.0312 69.6094C66.6719 69.6094 66.3438 69.6849 66.0469 69.8359C65.7552 69.987 65.5026 70.1953 65.2891 70.4609C65.0807 70.7266 64.9167 71.0312 64.7969 71.375C64.6823 71.7135 64.625 72.0729 64.625 72.4531ZM75.9062 68.5469V69.6562H71.3359V68.5469H75.9062ZM72.8828 66.4922H74.3281V74.9062C74.3281 75.1927 74.3724 75.4089 74.4609 75.5547C74.5495 75.7005 74.6641 75.7969 74.8047 75.8438C74.9453 75.8906 75.0964 75.9141 75.2578 75.9141C75.3776 75.9141 75.5026 75.9036 75.6328 75.8828C75.7682 75.8568 75.8698 75.8359 75.9375 75.8203L75.9453 77C75.8307 77.0365 75.6797 77.0703 75.4922 77.1016C75.3099 77.138 75.0885 77.1562 74.8281 77.1562C74.474 77.1562 74.1484 77.0859 73.8516 76.9453C73.5547 76.8047 73.3177 76.5703 73.1406 76.2422C72.9688 75.9089 72.8828 75.4609 72.8828 74.8984V66.4922Z" fill="#0006CF" fill-opacity="0.46"/>
<path d="M20 96H1080" stroke="black" stroke-opacity="0.1" stroke-dasharray="3 3"/>
<path d="M20 116H1080" stroke="black" stroke-opacity="0.1" stroke-dasharray="3 3"/>
<path d="M20 136H1080" stroke="black" stroke-opacity="0.1" stroke-dasharray="3 3"/>
<path d="M20 156H1080" stroke="black" stroke-opacity="0.1" stroke-dasharray="3 3"/>
<path d="M20 176H1080" stroke="black" stroke-opacity="0.1"/>
<rect x="38.8579" y="110.5" width="94.0664" height="65.5" fill="#0006CF" fill-opacity="0.46"/>
<rect x="193.397" y="129" width="94.0664" height="47" fill="#0006CF" fill-opacity="0.46"/>
<rect x="347.933" y="144" width="94.0664" height="32" fill="#0006CF" fill-opacity="0.46"/>
<rect x="502.473" y="127" width="94.0664" height="49" fill="#0006CF" fill-opacity="0.46"/>
<rect x="657.009" y="138" width="94.0664" height="38" fill="#0006CF" fill-opacity="0.46"/>
<rect x="811.544" y="117.5" width="94.0664" height="58.5" fill="#0006CF" fill-opacity="0.46"/>
<rect x="966.084" y="132.5" width="94.0664" height="43.5" fill="#0006CF" fill-opacity="0.46"/>
<path d="M1027.55 193.625H1029.01L1032.73 202.898L1036.45 193.625H1037.92L1033.3 205H1032.16L1027.55 193.625ZM1027.07 193.625H1028.36L1028.57 200.562V205H1027.07V193.625ZM1037.1 193.625H1038.39V205H1036.89V200.562L1037.1 193.625ZM1040.44 200.867V200.688C1040.44 200.078 1040.53 199.513 1040.7 198.992C1040.88 198.466 1041.14 198.01 1041.47 197.625C1041.8 197.234 1042.21 196.932 1042.68 196.719C1043.15 196.5 1043.68 196.391 1044.27 196.391C1044.87 196.391 1045.4 196.5 1045.88 196.719C1046.35 196.932 1046.76 197.234 1047.09 197.625C1047.43 198.01 1047.69 198.466 1047.87 198.992C1048.04 199.513 1048.13 200.078 1048.13 200.688V200.867C1048.13 201.477 1048.04 202.042 1047.87 202.562C1047.69 203.083 1047.43 203.539 1047.09 203.93C1046.76 204.315 1046.36 204.617 1045.88 204.836C1045.41 205.049 1044.88 205.156 1044.29 205.156C1043.7 205.156 1043.16 205.049 1042.69 204.836C1042.21 204.617 1041.81 204.315 1041.47 203.93C1041.14 203.539 1040.88 203.083 1040.7 202.562C1040.53 202.042 1040.44 201.477 1040.44 200.867ZM1041.88 200.688V200.867C1041.88 201.289 1041.93 201.688 1042.03 202.062C1042.13 202.432 1042.28 202.76 1042.48 203.047C1042.68 203.333 1042.93 203.56 1043.23 203.727C1043.54 203.888 1043.89 203.969 1044.29 203.969C1044.68 203.969 1045.03 203.888 1045.33 203.727C1045.63 203.56 1045.88 203.333 1046.08 203.047C1046.28 202.76 1046.42 202.432 1046.52 202.062C1046.63 201.688 1046.68 201.289 1046.68 200.867V200.688C1046.68 200.271 1046.63 199.878 1046.52 199.508C1046.42 199.133 1046.27 198.802 1046.07 198.516C1045.87 198.224 1045.62 197.995 1045.32 197.828C1045.02 197.661 1044.67 197.578 1044.27 197.578C1043.88 197.578 1043.53 197.661 1043.23 197.828C1042.93 197.995 1042.68 198.224 1042.48 198.516C1042.28 198.802 1042.13 199.133 1042.03 199.508C1041.93 199.878 1041.88 200.271 1041.88 200.688ZM1051.39 198.352V205H1049.95V196.547H1051.31L1051.39 198.352ZM1051.05 200.453L1050.45 200.43C1050.45 199.852 1050.54 199.318 1050.7 198.828C1050.87 198.333 1051.1 197.904 1051.41 197.539C1051.71 197.174 1052.07 196.893 1052.48 196.695C1052.91 196.492 1053.37 196.391 1053.88 196.391C1054.3 196.391 1054.67 196.448 1055.01 196.562C1055.34 196.672 1055.62 196.849 1055.86 197.094C1056.1 197.339 1056.28 197.656 1056.41 198.047C1056.53 198.432 1056.59 198.904 1056.59 199.461V205H1055.14V199.445C1055.14 199.003 1055.08 198.648 1054.95 198.383C1054.82 198.112 1054.62 197.917 1054.38 197.797C1054.12 197.672 1053.82 197.609 1053.45 197.609C1053.09 197.609 1052.77 197.685 1052.47 197.836C1052.18 197.987 1051.92 198.195 1051.71 198.461C1051.5 198.727 1051.34 199.031 1051.22 199.375C1051.1 199.714 1051.05 200.073 1051.05 200.453ZM1062.33 196.547V197.656H1057.76V196.547H1062.33ZM1059.3 194.492H1060.75V202.906C1060.75 203.193 1060.79 203.409 1060.88 203.555C1060.97 203.701 1061.09 203.797 1061.23 203.844C1061.37 203.891 1061.52 203.914 1061.68 203.914C1061.8 203.914 1061.92 203.904 1062.05 203.883C1062.19 203.857 1062.29 203.836 1062.36 203.82L1062.37 205C1062.25 205.036 1062.1 205.07 1061.91 205.102C1061.73 205.138 1061.51 205.156 1061.25 205.156C1060.9 205.156 1060.57 205.086 1060.27 204.945C1059.98 204.805 1059.74 204.57 1059.56 204.242C1059.39 203.909 1059.3 203.461 1059.3 202.898V194.492ZM1065.47 193V205H1064.02V193H1065.47ZM1065.12 200.453L1064.52 200.43C1064.53 199.852 1064.61 199.318 1064.78 198.828C1064.95 198.333 1065.18 197.904 1065.48 197.539C1065.79 197.174 1066.15 196.893 1066.56 196.695C1066.98 196.492 1067.45 196.391 1067.96 196.391C1068.38 196.391 1068.75 196.448 1069.09 196.562C1069.42 196.672 1069.7 196.849 1069.94 197.094C1070.18 197.339 1070.36 197.656 1070.48 198.047C1070.61 198.432 1070.67 198.904 1070.67 199.461V205H1069.22V199.445C1069.22 199.003 1069.15 198.648 1069.02 198.383C1068.89 198.112 1068.7 197.917 1068.45 197.797C1068.2 197.672 1067.9 197.609 1067.53 197.609C1067.17 197.609 1066.84 197.685 1066.55 197.836C1066.26 197.987 1066 198.195 1065.79 198.461C1065.58 198.727 1065.42 199.031 1065.3 199.375C1065.18 199.714 1065.12 200.073 1065.12 200.453ZM1077.76 202.758C1077.76 202.549 1077.71 202.357 1077.62 202.18C1077.53 201.997 1077.34 201.833 1077.06 201.688C1076.79 201.536 1076.37 201.406 1075.81 201.297C1075.34 201.198 1074.92 201.081 1074.54 200.945C1074.16 200.81 1073.84 200.646 1073.58 200.453C1073.32 200.26 1073.12 200.034 1072.98 199.773C1072.84 199.513 1072.77 199.208 1072.77 198.859C1072.77 198.526 1072.84 198.211 1072.98 197.914C1073.14 197.617 1073.35 197.354 1073.62 197.125C1073.89 196.896 1074.22 196.716 1074.61 196.586C1074.99 196.456 1075.42 196.391 1075.9 196.391C1076.58 196.391 1077.15 196.51 1077.63 196.75C1078.11 196.99 1078.48 197.31 1078.73 197.711C1078.99 198.107 1079.12 198.547 1079.12 199.031H1077.67C1077.67 198.797 1077.6 198.57 1077.46 198.352C1077.33 198.128 1077.12 197.943 1076.86 197.797C1076.6 197.651 1076.28 197.578 1075.9 197.578C1075.5 197.578 1075.17 197.641 1074.92 197.766C1074.68 197.885 1074.5 198.039 1074.38 198.227C1074.27 198.414 1074.22 198.612 1074.22 198.82C1074.22 198.977 1074.24 199.117 1074.3 199.242C1074.35 199.362 1074.45 199.474 1074.59 199.578C1074.73 199.677 1074.93 199.771 1075.19 199.859C1075.44 199.948 1075.77 200.036 1076.16 200.125C1076.86 200.281 1077.43 200.469 1077.88 200.688C1078.32 200.906 1078.66 201.174 1078.88 201.492C1079.09 201.81 1079.2 202.195 1079.2 202.648C1079.2 203.018 1079.12 203.357 1078.97 203.664C1078.82 203.971 1078.6 204.237 1078.3 204.461C1078.02 204.68 1077.67 204.852 1077.27 204.977C1076.88 205.096 1076.43 205.156 1075.94 205.156C1075.19 205.156 1074.56 205.023 1074.05 204.758C1073.53 204.492 1073.14 204.148 1072.88 203.727C1072.61 203.305 1072.48 202.859 1072.48 202.391H1073.93C1073.95 202.786 1074.07 203.102 1074.27 203.336C1074.48 203.565 1074.74 203.729 1075.04 203.828C1075.34 203.922 1075.64 203.969 1075.94 203.969C1076.33 203.969 1076.66 203.917 1076.93 203.812C1077.2 203.708 1077.41 203.565 1077.55 203.383C1077.69 203.201 1077.76 202.992 1077.76 202.758Z" fill="#0006CF" fill-opacity="0.46"/>
</svg>
