<svg width="40" height="38" viewBox="0 0 40 38" fill="none" xmlns="http://www.w3.org/2000/svg">
<rect width="40" height="38" rx="19" fill="white"/>
<path fill-rule="evenodd" clip-rule="evenodd" d="M19.8445 28.6618C16.1527 28.6618 13 28.0873 13 25.7865C13 23.4858 16.1327 21.3618 19.8445 21.3618C23.5364 21.3618 26.6891 23.4652 26.6891 25.766C26.6891 28.0658 23.5564 28.6618 19.8445 28.6618Z" stroke="#212121" stroke-width="1.5" stroke-linecap="round" stroke-linejoin="round"/>
<path fill-rule="evenodd" clip-rule="evenodd" d="M19.8373 18.1735C22.26 18.1735 24.2237 16.2099 24.2237 13.7872C24.2237 11.3644 22.26 9.3999 19.8373 9.3999C17.4146 9.3999 15.45 11.3644 15.45 13.7872C15.4419 16.2017 17.3919 18.1654 19.8064 18.1735C19.8173 18.1735 19.8273 18.1735 19.8373 18.1735Z" stroke="#212121" stroke-width="1.5" stroke-linecap="round" stroke-linejoin="round"/>
</svg>
